<?xml version="1.0" encoding="utf-8"?>
<!-- Generator: Adobe Illustrator 25.3.1, SVG Export Plug-In . SVG Version: 6.00 Build 0)  -->
<svg version="1.1" id="Calque_1" xmlns="http://www.w3.org/2000/svg" xmlns:xlink="http://www.w3.org/1999/xlink" x="0px" y="0px"
	 viewBox="0 0 3549 375" style="enable-background:new 0 0 3549 375;" xml:space="preserve">
<g>
	<path fill="#2672d5" d="M1289.75,132.6c-3.09,22.23-5.25,44.64-9.48,66.65c-8.03,41.8-17.18,83.39-26.14,125.01c-0.47,2.18-3.42,5.43-5.26,5.46
		c-20.91,0.39-41.83,0.25-63.68,0.25c20.16-95.41,40.1-189.73,60.24-285.06c24.21,0,48.13,0,72.05,0c16.75,0,16.73,0.01,21.51,16.46
		c15.88,54.6,31.78,109.2,47.69,163.8c0.96,3.29,2.18,6.5,4.14,12.29c5-29.13,8.95-55.29,14.08-81.22
		c6.85-34.58,14.53-69,22.18-103.42c0.64-2.9,3.67-7.46,5.68-7.51c20.87-0.55,41.75-0.34,63.71-0.34
		c-20.21,95.59-40.13,189.88-60.24,285.01c-28.53,0-56.78,0.16-85.02-0.32c-2.09-0.04-5.18-4.35-5.98-7.19
		c-16.99-59.82-33.72-119.71-50.52-179.58c-1.01-3.6-2.19-7.16-3.3-10.74C1290.87,132.3,1290.31,132.45,1289.75,132.6z
		 M1431.02,50.74c-10.91,59.39-21.71,118.6-32.84,177.74c-0.8,4.26-3.38,10.7-6.4,11.52c-7.25,1.99-7.6-5.36-9.03-10.25
		c-9.5-32.57-18.9-65.17-28.4-97.74c-7.9-27.1-15.91-54.17-24.01-81.74c-25.52,0-50.49-0.2-75.44,0.33
		c-2.31,0.05-5.94,4.48-6.57,7.4c-14.83,68.61-29.33,137.29-43.88,205.96c-4.19,19.78-8.32,39.56-12.72,60.5
		c18.47,0,35.74,0.18,53-0.25c1.87-0.05,4.83-3.34,5.29-5.55c9.09-42.96,18.33-85.9,26.53-129.04c3.6-18.93,4.81-38.3,7.55-57.4
		c0.39-2.72,3.29-5.07,5.03-7.6c2.52,2.22,5.31,4.22,7.44,6.76c1.18,1.41,1.3,3.72,1.84,5.64c16.74,59.56,33.42,119.15,50.36,178.66
		c0.92,3.24,3.97,8.34,6.13,8.39c25.57,0.59,51.17,0.38,77.19,0.38c19.36-91.61,38.52-182.3,57.84-273.71
		C1470.43,50.74,1452.2,50.74,1431.02,50.74z"/>
	<path fill="#2672d5" d="M1173.38,61.98c-9.17,19.3-18.4,38.73-27.71,58.31c-11.32-4.34-21.87-9.19-32.89-12.46
		c-43.05-12.77-80.07,3.28-100.19,43.39c-13.94,27.78-19.87,57.18-14.28,88.08c4.05,22.35,18.21,32.83,41.15,31.98
		c23.02-0.86,23.03-0.86,28.01-23.21c1.73-7.75,3.41-15.5,5.46-24.81c-14.85,0-28.89,0-44.58,0c4.51-20.63,8.64-39.54,12.88-58.91
		c39.66,0,78.81,0,118.99,0c-6.99,33.47-13.82,66.24-20.68,99c-3.41,16.27-6.67,32.58-10.47,48.76c-0.7,2.98-3.15,7.07-5.67,7.86
		c-39.47,12.45-79.95,18.72-121.07,12.35c-45.35-7.02-73.38-34.65-80.52-80.63c-8.96-57.74,2.38-111.56,40.1-157.62
		c28.95-35.35,68.01-51.29,112.92-53.45c30.56-1.47,60.49,2.03,88.67,15.12c2.41,1.12,4.77,2.35,7.08,3.66
		C1171.4,59.87,1172.02,60.71,1173.38,61.98z M1034.9,217.79c12.12,0,22.42,0.16,32.72-0.05c7.93-0.16,11.05,3.25,9.35,11.06
		c-1.56,7.15-3.04,14.32-4.51,21.49c-5.16,25.18-5.15,25.18-30.71,26.02c-29.59,0.97-44.87-11.06-49.37-40.41
		c-4.7-30.63,1.91-59.64,15.6-87.05c20.7-41.46,58.35-58.54,103.14-46.78c10.76,2.83,21.13,7.16,32.22,10.99
		c7.92-16.69,15.68-33.07,23.53-49.62c-2.35-1.3-3.76-2.18-5.25-2.88c-2.11-0.98-4.28-1.82-6.43-2.72
		c-28.09-11.74-57.63-13.59-87.38-11.37C1026.85,49.52,991.82,65.8,965.5,98c-35.41,43.34-45.78,93.81-39.25,148.22
		c5.41,45.07,32.43,74.45,76.82,81.03c39.01,5.78,77.75,0.49,115.41-11.17c2.76-0.85,5.48-5.4,6.22-8.69
		c6.2-27.6,11.98-55.28,17.78-82.97c3.8-18.16,7.43-36.35,11.35-55.59c-35.53,0-69.8-0.07-104.07,0.2
		c-1.76,0.01-4.62,2.66-5.07,4.53C1041.26,187.72,1038.32,202,1034.9,217.79z"/>
	<path fill="#2672d5" d="M538.19,106.45c-31.56,0-61.81,0-92.97,0c-3.08,14.91-6.06,29.35-9.35,45.27c29.52,0,57.66,0,86.55,0
		c-4.29,19.18-8.43,36.96-12.19,54.83c-1.19,5.67-4.65,6.29-9.43,6.26c-22.65-0.12-45.31,0.25-67.96-0.21
		c-7.96-0.16-11.94,1.52-13.18,10.35c-2.01,14.39-5.65,28.56-8.96,44.52c31.16,0,61.2,0,92.94,0c-4.54,21.84-8.71,41.86-12.93,62.14
		c-56.53,0-112.39,0-169.44,0c20.03-94.79,39.93-189.01,59.98-283.92c56.31,0,112.35,0,169.41,0
		C546.5,65.96,542.45,85.72,538.19,106.45z M327.85,323.87c53.47,0,105.93,0,158.73,0c3.55-17,6.99-33.46,10.67-51.13
		c-5.15,0-8.77,0-12.39,0c-22.33,0-44.66,0.08-66.98-0.04c-11.24-0.06-12.99-2.11-10.93-13.19c2.43-13.08,5.88-25.99,7.8-39.13
		c1.46-10.03,6.22-13.03,16-12.8c24.28,0.58,48.58,0.19,73.63,0.19c3.86-17.04,7.58-33.44,11.56-51.03c-5.01,0-8.62,0-12.23,0
		c-20.66,0-41.32,0.11-61.98-0.06c-10.35-0.09-11.74-2-9.73-11.9c2.12-10.43,5.05-20.75,6.26-31.28
		c1.21-10.54,6.84-12.86,16.22-12.7c22.99,0.39,45.99,0.15,68.98,0.1c3.55-0.01,7.1-0.31,10.75-0.48
		c3.43-17.08,6.66-33.19,9.92-49.42c-2.23-0.37-3.2-0.68-4.18-0.68c-48.99-0.04-97.98,0.03-146.96-0.18c-5.85-0.02-7.81,1.98-9,7.69
		c-13.63,65.46-27.61,130.84-41.46,196.25C337.64,277.14,332.82,300.22,327.85,323.87z"/>
	<path fill="#2672d5" d="M546.87,251.32c22.09,6.84,43.37,14.05,65.05,19.77c7.04,1.86,15.36,0.98,22.65-0.64c16.84-3.74,23.39-20.71,13.41-34.93
		c-4.7-6.7-11.36-12.08-17.42-17.74c-9.72-9.08-20.37-17.27-29.43-26.97c-24.2-25.91-30.51-56.71-19.72-89.95
		c10.92-33.63,36.76-51.77,70.36-57.98c38.18-7.06,74.67-0.24,110.06,18.16c-8.78,19.37-17.23,38.04-26.07,57.54
		c-8.07-3.25-15.44-7.13-23.29-9.16c-12.13-3.13-24.54-6.68-36.91-7c-19.41-0.5-29.24,17.45-19.23,34.17
		c4.16,6.95,10.57,12.78,16.69,18.3c9.88,8.91,21.02,16.49,30.48,25.79c26.18,25.74,31.1,57.38,21.72,91.37
		c-9.18,33.24-33.48,51.25-66.03,58.27c-35.31,7.61-70.08,6.05-103.58-9.29c-6.73-3.08-9.14-7.03-8.93-14.44
		C547.23,287.62,546.87,268.62,546.87,251.32z M754.89,63.71c-2.98-1.56-5.23-2.88-7.59-3.94c-27.39-12.36-56.32-16.29-85.87-13.18
		c-55.91,5.89-89.35,51.51-77.05,103.87c5.49,23.37,21.55,39.17,38.73,54.28c9.96,8.76,20.94,16.97,28.69,27.47
		c13.52,18.32,4.21,40.19-18.16,43.69c-10.24,1.6-21.44,1.24-31.51-1.15c-16.62-3.95-32.68-10.27-49.77-15.85
		c0,14.55,0.63,29.17-0.23,43.7c-0.53,8.97,3.23,12.84,10.84,16.1c25.65,10.97,52.53,12.19,79.48,9.32
		c35.23-3.75,64.77-18.06,76.65-54.28c11.95-36.43,4.56-69.03-25.23-94.98c-5.26-4.59-11.11-8.51-16.24-13.24
		c-8.52-7.85-18.13-15.07-24.67-24.39c-13.7-19.53-2.48-42.1,21.21-44.39c5.22-0.5,10.81-0.32,15.84,1.01
		c14.34,3.8,28.49,8.36,43.57,12.88C740.51,95.39,747.61,79.75,754.89,63.71z"/>
	<path fill="#2672d5" d="M47.31,329.45c20-94.67,39.91-188.92,59.81-283.08c1.26-0.53,2.15-1.22,3.02-1.21c33.62,0.35,67.35-0.86,100.82,1.53
		c51.87,3.7,85.66,39.38,89.92,91.32c2.37,28.87-0.32,57.29-8.95,84.82c-20.37,64.98-65.65,100.72-132.8,106.1
		C122.45,331.86,85.33,329.45,47.31,329.45z M54.19,322.53c39.44,0,78.26,2.87,116.47-0.72c48.26-4.54,84.13-31.2,106.11-74.97
		c16.41-32.69,21.55-67.88,19.2-103.89c-3.56-54.5-31.95-85.17-86.38-90.98c-29.34-3.13-59.22-1.11-88.84-1.86
		c-6.97-0.18-9.58,1.8-11.06,8.93c-14.84,71.66-30.16,143.22-45.32,214.82C60.87,290.36,57.46,306.86,54.19,322.53z"/>
	<path fill="#2672d5" d="M825.35,45.32c25.52,0,49.77,0,76.22,0c-20.04,94.96-39.91,189.1-59.93,283.94c-25.21,0-50.35,0-76.29,0
		C785.34,234.6,805.28,140.26,825.35,45.32z M771.72,324.51c19.02,0,36.94-0.4,54.84,0.18c8.05,0.26,11.28-1.73,13.04-10.3
		c14.65-71.32,29.98-142.5,45.07-213.73c3.48-16.42,6.81-32.87,10.43-50.41c-19.73,0-38.01,0.29-56.27-0.15
		c-6.85-0.16-9.64,1.59-11.14,8.84c-13.43,65.11-27.4,130.12-41.18,195.16C781.64,277.15,776.82,300.21,771.72,324.51z"/>
	<path fill="#2672d5" d="M229.95,164.27c-0.89,24.11-5.72,52.02-22.59,76.59c-16.18,23.57-38.81,33.25-66.99,31.44c-9.66-0.62-8.28-6.83-7.06-12.82
		c4.39-21.49,9.01-42.94,13.54-64.41c5.76-27.33,11.79-54.6,17.13-82.01c1.66-8.53,5.54-11.41,14.13-11.44
		C213.69,101.47,229.97,119.32,229.95,164.27z M137.4,265.74c30.99,4.59,55.26-7.81,70.59-35.68
		c14.23-25.88,18.53-54.07,16.17-83.01c-2.27-27.74-17.54-40.34-44.56-40.5c-7.38-0.04-9.76,2.87-11.02,9.34
		c-3.53,18.25-7.48,36.43-11.28,54.63C150.72,202.04,144.12,233.56,137.4,265.74z"/>
</g>
<g>
	<path fill="#2672d5" d="M3000.46,132.72c-3.09,22.23-5.25,44.64-9.48,66.65c-8.03,41.8-17.18,83.39-26.14,125.01c-0.47,2.18-3.42,5.43-5.26,5.46
		c-20.91,0.39-41.83,0.25-63.68,0.25c20.16-95.41,40.1-189.73,60.24-285.06c24.21,0,48.13,0,72.05,0c16.75,0,16.73,0.01,21.51,16.46
		c15.88,54.6,31.78,109.2,47.69,163.8c0.96,3.29,2.18,6.5,4.14,12.29c5-29.13,8.95-55.29,14.08-81.22
		c6.85-34.58,14.53-69,22.18-103.42c0.64-2.9,3.67-7.46,5.68-7.51c20.87-0.55,41.75-0.34,63.71-0.34
		c-20.21,95.59-40.13,189.88-60.24,285.01c-28.53,0-56.78,0.16-85.02-0.32c-2.09-0.04-5.18-4.35-5.98-7.19
		c-16.99-59.82-33.72-119.71-50.52-179.58c-1.01-3.6-2.19-7.16-3.3-10.74C3001.58,132.42,3001.02,132.57,3000.46,132.72z
		 M3141.73,50.86c-10.91,59.39-21.71,118.6-32.84,177.74c-0.8,4.26-3.38,10.7-6.4,11.52c-7.25,1.99-7.6-5.36-9.03-10.25
		c-9.5-32.57-18.9-65.17-28.4-97.74c-7.9-27.1-15.91-54.17-24.01-81.74c-25.52,0-50.49-0.2-75.44,0.33
		c-2.31,0.05-5.94,4.48-6.57,7.4c-14.83,68.61-29.33,137.29-43.88,205.96c-4.19,19.78-8.32,39.56-12.72,60.5
		c18.47,0,35.74,0.18,53-0.25c1.87-0.05,4.83-3.34,5.29-5.55c9.09-42.96,18.33-85.9,26.53-129.04c3.6-18.93,4.81-38.3,7.55-57.4
		c0.39-2.72,3.29-5.07,5.03-7.6c2.52,2.22,5.31,4.22,7.44,6.76c1.18,1.41,1.3,3.72,1.84,5.64c16.74,59.56,33.42,119.15,50.36,178.66
		c0.92,3.24,3.97,8.34,6.13,8.39c25.57,0.59,51.17,0.38,77.19,0.38c19.36-91.61,38.52-182.3,57.84-273.71
		C3181.14,50.86,3162.91,50.86,3141.73,50.86z"/>
	<path fill="#2672d5" d="M2884.09,62.1c-9.17,19.3-18.4,38.73-27.71,58.31c-11.32-4.34-21.87-9.19-32.89-12.46
		c-43.05-12.77-80.07,3.28-100.19,43.39c-13.94,27.78-19.88,57.18-14.28,88.08c4.05,22.35,18.21,32.83,41.15,31.98
		c23.02-0.86,23.03-0.86,28.01-23.21c1.73-7.75,3.41-15.5,5.46-24.81c-14.85,0-28.89,0-44.58,0c4.51-20.63,8.64-39.54,12.88-58.91
		c39.66,0,78.81,0,118.99,0c-6.99,33.47-13.82,66.24-20.68,99c-3.41,16.27-6.67,32.58-10.47,48.76c-0.7,2.98-3.15,7.07-5.67,7.86
		c-39.47,12.45-79.95,18.72-121.07,12.35c-45.35-7.02-73.38-34.65-80.52-80.63c-8.96-57.74,2.38-111.56,40.1-157.62
		c28.95-35.35,68.01-51.29,112.92-53.45c30.56-1.47,60.49,2.03,88.67,15.12c2.41,1.12,4.77,2.35,7.08,3.66
		C2882.11,59.99,2882.73,60.83,2884.09,62.1z M2745.61,217.91c12.12,0,22.42,0.16,32.72-0.05c7.93-0.16,11.05,3.25,9.35,11.06
		c-1.56,7.15-3.04,14.32-4.51,21.49c-5.16,25.18-5.15,25.18-30.71,26.02c-29.59,0.97-44.87-11.06-49.37-40.41
		c-4.7-30.63,1.91-59.64,15.6-87.05c20.7-41.46,58.35-58.54,103.14-46.78c10.76,2.83,21.13,7.16,32.22,10.99
		c7.92-16.69,15.68-33.07,23.53-49.62c-2.35-1.3-3.76-2.18-5.25-2.88c-2.11-0.98-4.28-1.82-6.43-2.72
		c-28.09-11.74-57.64-13.59-87.38-11.37c-40.96,3.06-75.99,19.33-102.3,51.54c-35.41,43.34-45.78,93.81-39.25,148.22
		c5.41,45.07,32.43,74.45,76.82,81.03c39.01,5.78,77.75,0.49,115.41-11.17c2.76-0.85,5.48-5.4,6.22-8.69
		c6.2-27.6,11.98-55.28,17.78-82.97c3.8-18.16,7.43-36.35,11.35-55.59c-35.53,0-69.8-0.07-104.07,0.2
		c-1.76,0.01-4.62,2.66-5.07,4.53C2751.97,187.84,2749.03,202.12,2745.61,217.91z"/>
	<path fill="#2672d5" d="M2248.9,106.57c-31.56,0-61.81,0-92.98,0c-3.08,14.91-6.06,29.35-9.35,45.27c29.52,0,57.66,0,86.55,0
		c-4.29,19.18-8.43,36.96-12.19,54.83c-1.19,5.67-4.65,6.29-9.43,6.26c-22.65-0.12-45.31,0.25-67.96-0.21
		c-7.96-0.16-11.94,1.52-13.18,10.35c-2.01,14.39-5.65,28.56-8.96,44.52c31.16,0,61.2,0,92.94,0c-4.54,21.84-8.71,41.86-12.93,62.14
		c-56.53,0-112.39,0-169.44,0c20.03-94.79,39.93-189.01,59.98-283.92c56.31,0,112.35,0,169.41,0
		C2257.21,66.08,2253.16,85.84,2248.9,106.57z M2038.56,323.99c53.47,0,105.93,0,158.73,0c3.55-17,6.99-33.46,10.67-51.13
		c-5.15,0-8.77,0-12.39,0c-22.33,0-44.66,0.08-66.98-0.04c-11.24-0.06-12.99-2.11-10.93-13.19c2.43-13.08,5.88-25.99,7.8-39.13
		c1.46-10.03,6.22-13.03,16-12.8c24.28,0.58,48.58,0.19,73.63,0.19c3.86-17.04,7.58-33.44,11.56-51.03c-5.01,0-8.62,0-12.23,0
		c-20.66,0-41.32,0.11-61.98-0.06c-10.35-0.09-11.74-2-9.73-11.9c2.12-10.43,5.05-20.75,6.26-31.28
		c1.21-10.54,6.84-12.86,16.22-12.7c22.99,0.39,45.99,0.15,68.98,0.1c3.55-0.01,7.1-0.31,10.75-0.48
		c3.43-17.08,6.66-33.19,9.92-49.42c-2.23-0.37-3.2-0.68-4.18-0.68c-48.99-0.04-97.98,0.03-146.96-0.18c-5.85-0.02-7.81,1.98-9,7.69
		c-13.63,65.46-27.61,130.84-41.46,196.25C2048.35,277.26,2043.53,300.34,2038.56,323.99z"/>
	<path fill="#2672d5" d="M2257.58,251.44c22.09,6.84,43.37,14.05,65.05,19.77c7.04,1.86,15.36,0.98,22.65-0.64c16.84-3.74,23.39-20.71,13.41-34.93
		c-4.7-6.7-11.36-12.08-17.42-17.74c-9.72-9.08-20.37-17.27-29.43-26.97c-24.2-25.91-30.51-56.71-19.72-89.95
		c10.92-33.63,36.76-51.77,70.36-57.98c38.18-7.06,74.67-0.24,110.06,18.16c-8.78,19.37-17.23,38.04-26.07,57.54
		c-8.07-3.25-15.44-7.13-23.29-9.16c-12.13-3.13-24.54-6.68-36.91-7c-19.41-0.5-29.24,17.45-19.23,34.17
		c4.16,6.95,10.57,12.78,16.69,18.3c9.88,8.91,21.02,16.49,30.48,25.79c26.18,25.74,31.1,57.38,21.72,91.37
		c-9.18,33.24-33.48,51.25-66.03,58.27c-35.31,7.61-70.08,6.05-103.58-9.29c-6.73-3.08-9.14-7.03-8.93-14.44
		C2257.94,287.74,2257.58,268.74,2257.58,251.44z M2465.6,63.83c-2.98-1.56-5.23-2.88-7.59-3.94
		c-27.39-12.36-56.32-16.29-85.87-13.18c-55.91,5.89-89.35,51.51-77.05,103.87c5.49,23.37,21.55,39.17,38.73,54.28
		c9.96,8.76,20.94,16.97,28.7,27.47c13.52,18.32,4.21,40.19-18.16,43.69c-10.24,1.6-21.44,1.24-31.51-1.15
		c-16.62-3.95-32.68-10.27-49.77-15.85c0,14.55,0.63,29.17-0.23,43.7c-0.53,8.97,3.23,12.84,10.84,16.1
		c25.65,10.97,52.53,12.2,79.48,9.32c35.23-3.75,64.77-18.06,76.65-54.28c11.95-36.43,4.56-69.03-25.23-94.98
		c-5.26-4.59-11.11-8.51-16.24-13.24c-8.52-7.85-18.13-15.07-24.67-24.39c-13.7-19.53-2.48-42.1,21.21-44.39
		c5.22-0.5,10.81-0.32,15.84,1.01c14.34,3.8,28.49,8.36,43.57,12.88C2451.22,95.51,2458.32,79.87,2465.6,63.83z"/>
	<path fill="#2672d5" d="M1758.02,329.57c20-94.67,39.91-188.92,59.81-283.08c1.26-0.53,2.15-1.22,3.02-1.21c33.62,0.35,67.35-0.86,100.82,1.53
		c51.87,3.7,85.66,39.38,89.92,91.32c2.37,28.87-0.32,57.29-8.95,84.82c-20.37,64.98-65.65,100.72-132.8,106.1
		C1833.16,331.98,1796.04,329.57,1758.02,329.57z M1764.9,322.65c39.44,0,78.26,2.87,116.47-0.72
		c48.26-4.54,84.13-31.2,106.11-74.97c16.41-32.69,21.55-67.88,19.2-103.89c-3.56-54.5-31.95-85.17-86.38-90.98
		c-29.34-3.13-59.22-1.11-88.84-1.86c-6.97-0.18-9.58,1.8-11.06,8.93c-14.84,71.66-30.16,143.22-45.32,214.82
		C1771.58,290.48,1768.17,306.99,1764.9,322.65z"/>
	<path fill="#2672d5" d="M2536.06,45.44c25.52,0,49.77,0,76.22,0c-20.04,94.96-39.91,189.1-59.93,283.94c-25.21,0-50.35,0-76.29,0
		C2496.05,234.72,2515.99,140.38,2536.06,45.44z M2482.43,324.63c19.02,0,36.94-0.4,54.84,0.18c8.05,0.26,11.28-1.73,13.04-10.3
		c14.65-71.32,29.98-142.5,45.07-213.73c3.48-16.42,6.81-32.87,10.43-50.41c-19.73,0-38.01,0.29-56.27-0.15
		c-6.85-0.16-9.64,1.59-11.14,8.84c-13.43,65.11-27.4,130.12-41.18,195.16C2492.35,277.27,2487.53,300.33,2482.43,324.63z"/>
	<path fill="#2672d5" d="M1940.66,164.39c-0.89,24.11-5.72,52.02-22.59,76.59c-16.18,23.57-38.81,33.25-66.99,31.44
		c-9.66-0.62-8.28-6.83-7.06-12.82c4.39-21.49,9.01-42.94,13.54-64.41c5.76-27.33,11.79-54.6,17.13-82.01
		c1.66-8.53,5.54-11.41,14.13-11.44C1924.4,101.59,1940.68,119.44,1940.66,164.39z M1848.11,265.86
		c30.99,4.59,55.26-7.81,70.59-35.68c14.23-25.88,18.53-54.07,16.17-83.01c-2.27-27.74-17.54-40.34-44.56-40.5
		c-7.38-0.04-9.76,2.87-11.02,9.34c-3.53,18.25-7.48,36.43-11.28,54.63C1861.43,202.16,1854.84,233.68,1848.11,265.86z"/>
</g>
</svg>
